<?xml version="1.0" encoding="iso-8859-1"?>
<!-- Generator: Adobe Illustrator 19.0.0, SVG Export Plug-In . SVG Version: 6.00 Build 0)  -->
<svg version="1.1" id="Capa_1" xmlns="http://www.w3.org/2000/svg" xmlns:xlink="http://www.w3.org/1999/xlink" x="0px" y="0px"
	 viewBox="0 0 512 512" style="enable-background:new 0 0 512 512;" xml:space="preserve">
<g>
	<g>
		<path d="M116,256c-5.52,0-10,4.48-10,10c0,5.52,4.48,10,10,10s10-4.48,10-10C126,260.48,121.52,256,116,256z"/>
	</g>
</g>
<g>
	<g>
		<path d="M482,236h-20.626c-4.577-20.146-12.581-39.209-23.866-56.835l27.777-69.451c1.232-3.081,0.856-6.572-1.004-9.32
			C462.421,97.646,459.318,96,456,96c-26.531,0-51.441,11.646-68.461,31.597c-13.108-9.029-27.239-16.226-42.177-21.481
			C345.786,102.764,346,99.384,346,96c0-44.112-35.888-80-80-80s-80,35.888-80,80c0,3.863,0.285,7.702,0.83,11.491
			c-66.437,24.173-115.741,83.981-120.439,156.543c-0.241,3.716-0.364,7.422-0.381,11.115c-12.35-2.005-24.922-7.35-31.366-13.788
			C25.201,251.91,20,239.352,20,226c0-13.124,5.1-25.819,14.641-35.358c3.905-3.905,3.905-10.237,0-14.143
			c-3.905-3.904-10.237-3.904-14.143,0C7.701,189.298,0,206.864,0,226c0,18.69,7.279,36.269,20.502,49.504
			c11.753,11.742,30.774,18.148,46.541,19.955c2.84,26.425,11.471,51.798,25.531,74.648c17.824,28.968,43.121,52.06,73.427,67.105
			V466c0,16.542,13.458,30,30,30h20c16.542,0,30-13.458,30-30v-10h40c6.586,0,13.277-0.385,20-1.148V466c0,16.542,13.458,30,30,30
			h20c16.542,0,30-13.458,30-30v-40.373c32.368-21.673,56.826-53.128,69.727-89.627H482c16.542,0,30-13.458,30-30v-40
			C512,249.458,498.542,236,482,236z M266,36c33.084,0,60,26.916,60,60c0,33.378-27.022,60-60,60c-33.035,0-60-26.793-60-60
			C206,62.916,232.916,36,266,36z M492,306c0,5.514-4.486,10-10,10h-33.5c-4.391,0-8.269,2.865-9.559,7.063
			c-11.271,36.676-35.508,68.159-68.247,88.651c-2.92,1.828-4.694,5.031-4.694,8.477V466c0,5.514-4.486,10-10,10h-20
			c-5.514,0-10-4.486-10-10v-22.71c0-2.96-1.311-5.768-3.58-7.667c-2.27-1.899-5.263-2.698-8.177-2.178
			C304.747,435.141,295.244,436,286,436c-43.262-0.143-38.279,0.261-46.325-0.3c-1.035-0.072-2.069-0.145-3.107-0.203
			c-2.745-0.167-5.435,0.825-7.435,2.714c-2,1.89-3.133,4.519-3.133,7.27V466c0,5.514-4.486,10-10,10h-20c-5.514,0-10-4.486-10-10
			v-35.11c0-3.927-2.298-7.49-5.875-9.109c-61.321-27.765-98.13-89.177-93.775-156.454c4.03-62.251,45.278-115.875,105.821-138.49
			c4.738,11.356,11.98,21.268,20.953,29.164H196c-5.523,0-10,4.478-10,10c0,5.522,4.477,10,10,10h140c5.523,0,10-4.478,10-10
			c0-5.522-4.477-10-10-10h-17.073c9.287-8.184,16.715-18.533,21.434-30.426c15.447,5.625,29.911,13.603,43.082,23.788
			c2.189,1.692,4.981,2.401,7.713,1.961c2.731-0.442,5.158-1.996,6.702-4.292c10.12-15.05,25.442-25.401,42.682-29.305
			l-23.545,58.87c-1.236,3.092-0.854,6.595,1.021,9.346c12.861,18.869,21.387,39.667,25.339,61.815
			c0.851,4.77,4.999,8.243,9.844,8.243H482c5.514,0,10,4.486,10,10V306z"/>
	</g>
</g>
<g>
	<g>
		<path d="M196.616,385.331c-34.426-15.591-59.016-45.382-67.465-81.734c-1.25-5.379-6.625-8.725-12.004-7.477
			c-5.379,1.25-8.727,6.625-7.477,12.004c9.869,42.465,38.553,77.246,78.695,95.426c5.031,2.28,10.957,0.047,13.235-4.984
			C203.878,393.535,201.646,387.609,196.616,385.331z"/>
	</g>
</g>
<g>
	<g>
		<path d="M376,216c-16.542,0-30,13.458-30,30s13.458,30,30,30s30-13.458,30-30S392.542,216,376,216z M376,256
			c-5.514,0-10-4.486-10-10c0-5.514,4.486-10,10-10c5.514,0,10,4.486,10,10C386,251.514,381.514,256,376,256z"/>
	</g>
</g>
<g>
	<g>
		<path d="M266,66c-5.523,0-10,4.478-10,10v40c0,5.522,4.477,10,10,10s10-4.478,10-10V76C276,70.478,271.523,66,266,66z"/>
	</g>
</g>
<g>
</g>
<g>
</g>
<g>
</g>
<g>
</g>
<g>
</g>
<g>
</g>
<g>
</g>
<g>
</g>
<g>
</g>
<g>
</g>
<g>
</g>
<g>
</g>
<g>
</g>
<g>
</g>
<g>
</g>
</svg>
